<svg width="193" height="48" viewBox="0 0 193 48" fill="none" xmlns="http://www.w3.org/2000/svg">
  <rect width="193" height="48" rx="4" fill="#FC4C02"/>
  <path d="M43.83 23.95l-3.56-7h-5.23L43.83 34.2l8.77-17.25h-5.22m-11.94-9.52l4.83 9.51h7.11L43.83 0l-11.94 23.51h7.1l4.83-9.51" fill="#fff"/>
  <g fill="#fff">
    <path d="M68.5 24.2c0-4.3-3.2-7.2-7.5-7.2s-7.5 2.9-7.5 7.2 3.2 7.2 7.5 7.2 7.5-2.9 7.5-7.2zm-12.8 0c0-3.1 2.3-5.2 5.3-5.2s5.3 2.1 5.3 5.2-2.3 5.2-5.3 5.2-5.3-2.1-5.3-5.2z"/>
    <path d="M78.6 22v-4.7h-2.1v13.8h2.1v-6.9h4.3v-2.2h-4.3z"/>
    <path d="M85.4 17.3h-2.1v13.8h2.1v-6.9h4.3v-2.2h-4.3v-4.7z"/>
    <path d="M100.9 24.4h-6c.2 2.1 1.7 3.3 3.6 3.3 1.5 0 2.7-.6 3.1-1.9h2.1c-.5 2.5-2.7 3.8-5.2 3.8-3.4 0-5.7-2.4-5.7-6.4s2.3-6.4 5.6-6.4 5.5 2.4 5.5 6.2v1.4zm-2.1-1.6c-.2-1.9-1.5-3.1-3.4-3.1-1.9 0-3.1 1.2-3.4 3.1h6.8z"/>
    <path d="M111.4 31.1c-2.3 0-3.8-1.5-3.8-3.7 0-2.2 1.5-3.7 3.8-3.7 1.5 0 2.6.7 3 1.8h-2.2c-.2-.5-1-.9-1.9-.9-1.2 0-2.1.8-2.1 2 0 1.2.9 2 2.1 2 .9 0 1.7-.4 1.9-.9h2.2c-.4 1.1-1.5 1.8-3 1.8v1.6z"/>
    <path d="M115.8 17.3v2h-2v11.8h2.1v-11.8h2.6v-2h-2.7z"/>
    <path d="M129.5 31.1c-3.1 0-5.3-2.3-5.3-5.3v-8.5h2.1v8.5c0 1.9 1.4 3.3 3.2 3.3 1.8 0 3.2-1.4 3.2-3.3v-8.5h2.1v8.5c0 3-2.2 5.3-5.3 5.3z"/>
    <path d="M141.4 31.1c-1.3 0-2.3-.4-3.1-1.1v-6.6c.7-.7 1.7-1.1 3.1-1.1 1.9 0 3.2 1.2 3.2 2.9 0 1.7-1.3 2.9-3.2 2.9-.8 0-1.6-.2-2.1-.5v1.8c.6.3 1.3.5 2.1.5 1.1 0 1.7-.5 1.7-1.3 0-.7-.5-1-1.6-1.3-2-.5-3.1-1.4-3.1-3.2 0-2.4 2-4.1 5.1-4.1 1.4 0 2.5.4 3.2 1v6.8c-.8.6-1.9 1.1-3.3 1.1z"/>
    <path d="M152 24.2c0-4.3-3.2-7.2-7.5-7.2s-7.5 2.9-7.5 7.2 3.2 7.2 7.5 7.2 7.5-2.9 7.5-7.2zm-12.8 0c0-3.1 2.3-5.2 5.3-5.2s5.3 2.1 5.3 5.2-2.3 5.2-5.3 5.2-5.3-2.1-5.3-5.2z"/>
    <path d="M159 17.3h-2.1v13.8h2.1v-6.9h4.3v-2.2H159z"/>
    <path d="M174.1 24.2c0-4.3-3.2-7.2-7.5-7.2s-7.5 2.9-7.5 7.2 3.2 7.2 7.5 7.2 7.5-2.9 7.5-7.2zm-12.8 0c0-3.1 2.3-5.2 5.3-5.2s5.3 2.1 5.3 5.2-2.3 5.2-5.3 5.2-5.3-2.1-5.3-5.2z"/>
    <path d="M176.4 17.3h2.1l3 10.3 3.1-10.3h2.1l-4.1 13.8h-2.1z"/>
  </g>
</svg>
