<svg xmlns="http://www.w3.org/2000/svg" width="193" height="48" viewBox="0 0 193 48">
  <g fill="none" fill-rule="evenodd">
    <rect width="193" height="48" fill="#FC4C02" rx="4"/>
    <path fill="#FFF" fill-rule="nonzero" d="M117.75 29.58h-3.41v-7.14h-5.26v-2.33h13.91v2.33h-5.24v7.14zm13.1-4.78h4.52l1.37 4.78h3.94l-5.61-15.1h-4.32l-5.6 15.1h3.79l1.91-4.78zm1.02-3.32l1.24-3.37 1.25 3.37h-2.49zm24.1 8.1l-6.3-15.1h-4l5.48 12.18-5.66-12.18h-4.04l6.45 15.1h4.07zm14.47-4.78h4.51l1.37 4.78h3.94l-5.6-15.1h-4.32l-5.61 15.1h3.8l1.91-4.78zm1.02-3.32l1.24-3.37 1.25 3.37h-2.49zm-50.69 8.1h3.74v-7.23h1.76c2.81 0 4.14-1.39 4.14-3.92 0-2.52-1.33-3.93-4.14-3.93h-5.5v15.08zm3.74-9.3v-3.71h1.59c1.07 0 1.58.5 1.58 1.83 0 1.34-.5 1.88-1.58 1.88h-1.59zm-13.88 5.7c0 2.27 1.29 3.86 4.34 3.86 2.37 0 4.2-1.22 4.2-3.3 0-1.87-1.3-2.82-3.15-3.35l-1.37-.4c-1.07-.28-1.5-.78-1.5-1.58 0-1.01.88-1.63 2.1-1.63 1.38 0 2.15.65 2.23 1.8h3.45c-.15-2.61-1.93-4.33-5.6-4.33-2.31 0-5.32 1.13-5.32 4.02 0 1.87 1.23 2.76 3.02 3.3l1.45.42c1.24.38 1.55.8 1.55 1.6 0 1.05-.8 1.76-2.26 1.76-1.53 0-2.39-.7-2.47-2.17h-3.61zm-13.23 3.6h3.48v-1.68h3.88l-1.89-3.23h-5.47v4.91zm0-7.38h4.52l1.62 2.75h3.94l-4.57-7.85H90.4v5.1zm-32.96 4.16l2.84 5.6h4.17l-7.01-13.83-7 13.83h4.17l2.83-5.6zM66.69 8.24h3.07L64.61 24h3.06l5.16-10.17h3.06L73.8 24h3.06l2.1-4.12H66.7zM42.44 24h3.5v-7.82h3.9l4.5 7.82h4.1l-5.1-8.52c2.4-.73 3.9-2.73 3.9-5.46 0-3.64-2.8-5.75-6.8-5.75H42.44V24zm3.5-10.82v-5.9h3.7c1.9 0 3.3.9 3.3 2.9 0 2.1-1.4 3-3.3 3h-3.7zM27 24.32c5.6 0 9.2-3.8 9.2-9.66C36.2 8.78 32.6 5 27 5s-9.2 3.78-9.2 9.66c0 5.86 3.6 9.66 9.2 9.66zm0-3.14c-3.6 0-5.7-2.65-5.7-6.52 0-3.85 2.1-6.5 5.7-6.5s5.7 2.65 5.7 6.5c0 3.87-2.1 6.52-5.7 6.52z"/>
    <path fill="#FFF" fill-rule="nonzero" d="M12.92 24V11.23a3.52 3.52 0 0 0-1.07-2.58 3.55 3.55 0 0 0-2.52-1.04 3.53 3.53 0 0 0-2.52 1.04A3.56 3.56 0 0 0 5.75 11.23V24H2.22v-12.8A7.03 7.03 0 0 1 4.3 6.13 6.94 6.94 0 0 1 9.32 4a6.94 6.94 0 0 1 5.03 2.13 7.02 7.02 0 0 1 2.1 5.1V24h-3.53z"/>
  </g>
</svg>
